<svg xmlns="http://www.w3.org/2000/svg" width="100" height="100" viewBox="0 0 26.458 26.458"><g transform="matrix(.02002 0 0 .02002 -.898 -1.618)"><path d="M57.353 917.089s119.695-67.47 144.583-133.75c24.887-66.28 22.228-86.867 18.414-117.084-3.813-30.217 63.414-109.603 63.414-109.603l33.84 239.8s8.606 80.05-46.771 133.177c-55.377 53.129-110.166 39.369-143.923 29.93-33.757-9.44-69.557-42.47-69.557-42.47zm1154.219-414.831s-205.084-7.684-247.711-92.842c-42.627-85.159-104.935-33.524-104.935-33.524l120.642 182.666s50.133 76.054 138.923 52.334c88.79-23.72 93.08-108.634 93.08-108.634z" fill="#f8f3e0" fill-rule="evenodd" stroke="#000" stroke-width="24.966" stroke-linejoin="round"/><path d="M858.926 375.892s47.457-64.705 37.535-123.106C886.538 194.386 832.42 98.1 832.42 98.1s150.941 54.803 164.868 176.024c13.927 121.223-55.827 232.144-55.827 232.144zM281.363 570.446s-86.43-36.54-119.165-127.182c-32.733-90.641-8.726-149.588-8.726-149.588S67.3 438.801 119.84 561.066c52.54 122.264 184.919 160.729 184.919 160.729z" fill="#f6cf85" fill-rule="evenodd" stroke="#000" stroke-width="24.966" stroke-linejoin="round"/><path d="M283.764 556.652s80.925-102.938 279.65-152.01c198.724-49.074 295.513-28.749 295.513-28.749s147.092 178.562 189.413 367.041c42.321 188.48 19.993 277.774-7.65 358.447-27.64 80.672-95.776 145.056-184.663 191.892-88.886 46.836-190.045 32.7-255.476 1.99-65.429-30.71-172.718-60.277-238.858-281.548-66.14-221.27-77.929-457.062-77.929-457.062z" fill="#f8f3e0" fill-rule="evenodd" stroke="#000" stroke-width="24.966" stroke-linejoin="round"/><path d="M673.33 392.79s9.867 34.28-24.392 86.735c-34.26 52.456-75.255 58.44-27.742 106.087 47.515 47.648 36.65 54.81 33.428 61.35-3.222 6.54-17.523 38.046-115.8-10.948-98.276-48.995-61.734 61.216-60.268 79.99 1.466 18.777 14.779 50.006-43.482 79.058-58.258 29.052-113.547-15.81-113.547-15.81-13.835-72.347-21.752-145.073-26.296-218.013-1.284-1.45 111.986-134.478 378.099-168.448z" fill="#52504a" fill-rule="evenodd"/><ellipse cx="309.456" cy="806.463" rx="46.341" ry="74.503" transform="rotate(-14.957)" fill="#f8ffff" stroke="#000" stroke-width="28.965" stroke-linecap="round" stroke-linejoin="round"/><ellipse cx="746.621" cy="701.377" rx="47.152" ry="74.586" transform="rotate(-5.857)" fill="#f8ffff" stroke="#000" stroke-width="28.737" stroke-linecap="round" stroke-linejoin="round"/><path d="M403.6 1117.972s48.346-168.527 275.605-257.35c227.258-88.822 383.296-27.1 383.296-27.1s67.547 294.183-178.676 447.305c-246.224 153.122-448.022-106.201-448.022-106.201z" fill="#f1c6e3" fill-rule="evenodd" stroke="#000" stroke-width="24.966" stroke-linejoin="round"/><ellipse ry="59.326" rx="51.781" cy="1163.843" cx="352.644" transform="rotate(-14.957)" fill="none" stroke="#000" stroke-width="24.966" stroke-linecap="round" stroke-linejoin="round"/><ellipse cx="933.798" cy="845.746" rx="51.068" ry="65.128" transform="rotate(7.19)" fill="none" stroke="#000" stroke-width="25.02" stroke-linecap="round" stroke-linejoin="round"/></g><path d="M7.458 21.607c-1.754.594-3.02.673-4.35.82 1.294.175 2.482.445 4.036.39-.908.854-2.806 1.599-4.473 2.37 1.852-.226 3.876-.351 5.197-.883-.356.606-1.06 1.266-1.785 1.929.86-.315 1.6-.42 2.618-1.01.055.334.007.695-.014 1.048.457-.639.883-1.27 1.852-2.045-1.05-.646-2.06-1.294-3.081-2.619zM19.89 20.75c1.433.334 1.923.921 2.851 1.391-.385-.713-.782-1.416-1.58-1.764 1.627-.173 2.528.297 3.777.46-.99-.707-1.97-1.538-3.006-1.481 1.45-1.077 2.893-.517 4.34-.736-1.39-.332-2.665-1.504-4.183-.873-.297-.647 1.12-1.007 1.72-1.503-1.12.255-2.416.173-3.21 1.053.165 1.158-.279 2.305-.71 3.453z" fill="#0cc55f" stroke="#000" stroke-width=".375" stroke-linejoin="round"/></svg>