<svg height="100" width="100" xmlns="http://www.w3.org/2000/svg"><ellipse cx="54.669" cy="86.124" fill-opacity=".417" rx="38.095" ry="6.553"/><path d="m63.879 61.962h5.316c.478 6.261 1.118 12.353 0 18.502h-5.315c.818-5.917.674-12.218 0-18.502zm-22.684 3.474h5.53c-1.033 4.357-.85 8.852 0 13.397h-5.53c-.775-4.066-.548-8.39 0-13.397z" fill="#f8f3e0" stroke="#000" stroke-linejoin="round" stroke-width=".912"/><path d="m41.256 78.833h5.468s1.434 4.045.988 4.92c-.446.874-3.024.644-3.024.644l-.297-3.729-.05 3.82s-2.726.37-3.47-.045.385-5.61.385-5.61zm22.623 1.63h5.316s-.425.39-.283 1.1c.141.708.921 3.969.531 4.43-.39.46-3.296.248-3.296.248l.071-4.076-.39 4.111s-2.8-.07-3.119-.638c-.319-.567 1.17-5.174 1.17-5.174z" fill="#b14217" fill-rule="evenodd" stroke="#000" stroke-linejoin="round" stroke-width=".912"/><path d="m69.337 71.248s-2.162-.886-2.8.71c-.638 1.594.46 1.523.638 2.516.177.992-1.489 1.17-.886 2.552.602 1.382 2.694 1.984 2.694 1.984s.531-1.914.46-3.97a302.2 302.2 0 0 1 -.106-3.792zm-27.948-3.912s1.331-.439 1.217.55c-.114.988.947.254 1.146 1.398.198 1.144-.821.922-.783 1.669.039.746.864.534.72 1.38-.143.844-.762 2.024-1.838 2.296s-.848-.889-.848-.889z" fill="#52504a" fill-rule="evenodd"/><g fill-rule="evenodd"><g fill="#f1c6e3" stroke="#000" stroke-width=".912237"><path d="m58.846 63.983s14.673 6.096 19.99-3.332c5.316-9.428-25.377-1.205-19.99 3.332z" stroke-linejoin="round"/><path d="m62.635 65.218 3.483.55-1.854 2.933s-.652 1.203-1.98.727c-1.103-.576-.777-1.604-.777-1.604z" stroke-linejoin="round"/><path d="m69.627 65.87 3.007-.502 1.83 1.754s.752.777-.326 1.53c-1.077.75-2.155-.377-2.155-.377z"/></g><path d="m70.304 62.862s.1 1.353 1.654 1.428 1.303-.902 1.303-.902.376.3.877.1.953-1.328.953-1.328z" fill="#52504a"/></g><g stroke="#000"><path d="m75.575 57.851h5.954c.81 8.405 1.058 17.32 0 23.605h-5.954c1.316-7.34.76-15.485 0-23.605z" fill="#f8f3e0" stroke-linecap="round" stroke-linejoin="round" stroke-width=".912237"/><path d="m30.066 62.104h5.104c-.825 6.276-1.242 12.483 0 17.65h-5.104c-1.378-5.753-.407-11.715 0-17.65z" fill="#f8f3e0" stroke-linejoin="round" stroke-width=".912237"/><path d="m35.17 79.755h-5.104s-.839 3.081-.688 4.585c.15 1.504 3.107.35 3.107.35l-.2-3.558.752 4.01s2.305-.25 2.756-.852c.452-.602-.623-4.535-.623-4.535zm46.36 1.701s.531 5.175.283 5.777c-.248.603-3.367.142-3.367.142l.213-4.36-.426 4.466s-3.828-.177-3.828-.85c0-.674 1.17-5.175 1.17-5.175z" fill="#b14217" fill-rule="evenodd" stroke-linejoin="round" stroke-width=".912237"/></g><path d="m81.776 66.747s-1.773 2.02-1.666 3.19c.106 1.17.815 1.666.709 2.34-.107.673-.78 1.24-.745 3.012.036 1.772-.531 2.48-.992 2.729-.46.248-2.127.035-2.446.85-.319.816-.425 2.127-.425 2.127l5.033.036s.744-6.805.638-8.294-.106-5.99-.106-5.99z" fill="#52504a" fill-rule="evenodd"/><path d="m85.466 30.507.552 4.36s.952-.701 2.456 1.053c1.503 1.755 4.962 8.12 5.613 10.626.652 2.507 2.256 8.872 2.056 11.228s-.953 4.461-.401 6.316c.55 1.854 2.756 4.812 2.756 4.812s-1.203-3.81-1.102-5.364c.1-1.553 1.203 4.762 1.203 4.762s.25-3.007-.301-5.012.752 2.606.752 2.606.802-2.406.35-4.31c-.45-1.905-1.152-3.158-1.152-3.158s-.301-4.562-1.103-7.87-2.055-7.87-2.957-10.225c-.903-2.356-3.058-7.168-5.765-9.072-2.706-1.905-2.957-.752-2.957-.752z" fill="#f8f3e0" fill-rule="evenodd" stroke="#000" stroke-linejoin="round" stroke-width=".912237"/><path d="m86.775 43.39c0 5.546.198 8.172-5.979 15.354-4.928 5.73-18.517 4.207-27.48 5.983-9.846 1.951-20.827 1.844-26.486-4.282-5.129-5.551-6.283-9.016-7.255-16.062-.5-3.623 9.115-21.37 23.275-20.741 6.098.27 7.54-3.29 15.712-2.864 10.224.532 12.498 3.847 20.674 2.58 7.47-1.157 7.539 14.486 7.539 20.032z" fill="#f8f3e0" stroke="#000" stroke-width=".912237"/><path d="m36.996 35.92s2.406.1 3.409 1.203c1.002 1.103.802 2.105 1.704 2.306.902.2.551-.802.551-.802s-.2-1.704 1.554-1.554c1.755.15 2.757.802 3.308 1.704.552.902.602 3.008 1.604 3.459a8.772 8.772 0 0 1 2.908 2.105c.852.952.4 2.857 1.704 3.459 1.303.601 2.305 2.004 2.105 3.458s-.902 2.155-1.804 2.657c-.903.5-2.306 0-2.707 1.203s.35 1.403.952 2.456c.602 1.052.351 1.654-.1 1.954-.451.301-1.053.552-1.704.05-.652-.5-2.456-1.303-3.308-1.453-.853-.15-3.208-.752-3.81-1.253-.601-.501-1.804-3.258-2.656-3.96s-2.356-1.303-4.01-1.002c-1.654.3-4.862.752-5.915-.903-1.053-1.654-2.907-9.874.551-12.982 3.459-3.107 5.664-2.105 5.664-2.105z" fill="#52504a" fill-rule="evenodd"/><path d="m41.762 65.383s-4.182-.124-7.23-1.01c-3.048-.887.337-1.542.337-1.542s2.357-.585-.674-.833c-3.03-.248-1.807-1.967-1.807-1.967s1.134-1.72.886-3.385c-.248-1.666-.993-2.534.372-3.598 1.365-1.063 3.792-.708 3.934.107s-.337 2.87.744 3.367c1.081.496 3.12.124 3.208 1.719.089 1.595-1.63 2.463-1.205 3.916s1.134 1.24 1.33 2.003c.194.762.105 1.223.105 1.223zm20.448-44.337s-1.304 1.253-1.103 3.057c.2 1.805 1.554 2.557 1.454 3.76s-2.857 3.007-3.258 4.31c-.401 1.304-1.805 3.66 1.603 4.562 3.409.902 3.108.751 3.409 2.155.3 1.403 2.707 3.659 2.707 5.213s-.552 5.714 3.91 6.666c4.46.953 4.06-3.709 4.861-5.463.802-1.755 3.058-2.657 3.71-4.16.651-1.504 1.654-3.46-.602-5.213-2.256-1.755-2.456-1.053-2.256-2.306s1.705-1.353 2.507-2.206c.802-.852 2.506-2.055 4.11-2.004 1.604.05 1.904.4 1.904.4s-.902-2.857-1.303-3.508c-.4-.652-.15-.351-1.453-1.905-1.304-1.554-3.81-.601-5.113-.451s-4.11 0-5.213-.35c-1.103-.352-3.659-1.104-5.564-1.354-1.904-.25-4.31-1.203-4.31-1.203z" fill="#52504a" fill-rule="evenodd"/><path d="m38.771186 23.940678-3.230878-.05142c2.922917 24.041856-7.035654 25.053001-14.4598 27.275999l.95339 2.86017c20.303726-4.913223 17.67871-19.010686 16.737288-30.084749z" fill="#da1616" fill-rule="evenodd" stroke="#000" stroke-linejoin="round"/><path d="m38.983051 25.105932s6.991525-5.190678 8.580508 2.966102c1.588983 8.156779 8.050848 2.012712 8.050848 2.012712" fill="none" stroke="#000"/><path d="m63.339794 41.858746-7.725387-11.774 11.774-7.725387 29.3528 6.094455-4.048612 19.499386z" fill="#dee6d1" fill-rule="evenodd" stroke="#000" stroke-linejoin="round"/><path d="m-10.638672 5.8222656v1.3945313c-1.233507.1215278-2.195963.4678819-2.888672 1.0390625-.686632.5651041-1.029297 1.2868922-1.029297 2.1679686 0 .820312.24783 1.511285.746094 2.070313.504341.552951 1.359375 1.065103 2.5625 1.539062l.609375.238281v2.824219c-.583333-.03646-1.248698-.154948-1.996094-.355469-.741319-.20052-1.375651-.430121-1.904296-.691406v2.40625c1.118056.49219 2.417751.752823 3.90039.783203v1.832031h1.2500001v-1.86914c1.2578125-.115451 2.2348091-.463542 2.9335938-1.046875.6987847-.589409 1.0488281-1.367838 1.0488281-2.333985 0-.534722-.1184895-1.003254-.3554688-1.404296-.2309027-.401042-.5991753-.767362-1.1035156-1.101563-.4982638-.334202-1.3385417-.729818-2.5234375-1.185547v-2.6894529c.9965278.085069 1.968099.3220488 2.9160157.7109379l.8574218-2.1328129c-1.1241319-.4982637-2.3819445-.7771266-3.7734375-.8378906v-1.3574219zm0 3.6542969v2.1425785c-.413195-.182292-.713976-.359158-.902344-.529297-.182291-.176216-.273437-.398655-.273437-.666016 0-.5164931.391927-.8318141 1.175781-.9472655zm1.2500001 5.2871095c.4131944.188368.7230903.37066.9296875.546875.2065973.176215.3085938.391276.3085938.646484 0 .577257-.4118924.936415-1.2382813 1.076172z" transform="translate(88.135593 21.504237)"/><g transform="matrix(.03448 0 0 .03448 -1.549 5.094)"><path d="m58.145 723.9s141-36.34 184.609-97.391c43.608-61.052 46.516-82.856 50.876-114.836 4.361-31.98 94.902-94.869 94.902-94.869l-30.942 254.767s-13.083 84.31-84.31 123.557c-71.227 39.248-123.558 10.175-155.537-8.722-31.98-18.897-59.598-62.505-59.598-62.505zm1295.172-109.02s-207.867-63.96-228.218-162.805c-20.35-98.846-98.265-63.023-98.265-63.023l73.554 220.013s30.526 91.578 127.918 91.578 125.01-85.763 125.01-85.763z" fill="#f8f3e0" fill-rule="evenodd" stroke="#000" stroke-linejoin="round" stroke-width="26.457"/><path d="m1026.834 389.052s66.285-53.267 72.1-115.772c5.814-62.506-23.258-175.888-23.258-175.888s139.547 97.393 120.65 225.31c-18.897 127.919-120.65 222.404-120.65 222.404zm-644.533 41.218s-78.495-61.051-87.217-162.805c-8.722-101.753 31.98-155.537 31.98-155.537s-127.919 125.012-107.568 264.559c20.35 139.547 145.362 215.135 145.362 215.135z" fill="#f6cf85" fill-rule="evenodd" stroke="#000" stroke-linejoin="round" stroke-width="26.457"/><path d="m388.532 416.804s111.008-83.256 327.888-79.144c216.879 4.111 310.414 51.393 310.414 51.393s101.758 223.046 93.535 427.59c-8.222 204.545-55.504 289.858-105.87 364.892-50.364 75.034-137.733 122.315-241.547 145.956-103.814 23.64-203.516-18.501-262.105-67.839-58.588-49.337-160.346-108.953-167.541-353.584s45.226-489.263 45.226-489.263z" fill="#f8f3e0" fill-rule="evenodd" stroke="#000" stroke-linejoin="round" stroke-width="26.457"/><path d="m832.195 355.59s.727 37.794-48.696 82.129-93.031 39.248-57.418 101.026c35.614 61.779 22.531 66.14 17.444 71.954-5.088 5.815-28.346 34.16-115.563-42.881-87.217-77.042-79.949 45.789-83.583 65.412-3.634 19.624 1.454 55.238-66.14 69.047-67.592 13.81-111.928-47.242-111.928-47.242 5.624-77.855 17.409-154.478 32.707-230.399-.918-1.835 151.434-107.051 433.177-69.046z" fill="#52504a" fill-rule="evenodd"/><g stroke="#000" stroke-linejoin="round"><ellipse cx="578.198" cy="623.908" fill="#f8ffff" rx="49.109" ry="78.953" stroke-linecap="round" stroke-width="30.695"/><ellipse cx="1001.832" cy="475.869" fill="#f8ffff" rx="49.968" ry="79.041" stroke-linecap="round" stroke-width="30.453" transform="matrix(.98741381 .15815807 -.15815807 .98741381 0 0)"/><path d="m357.696 1024.27s95.591-159.318 352.557-188.098c256.965-28.78 399.838 77.09 399.838 77.09s-11.307 319.665-305.275 409.089c-293.969 89.424-429.646-231.27-429.646-231.27z" fill="#f1c6e3" fill-rule="evenodd" stroke-width="26.457"/><ellipse cx="623.965" cy="1002.632" fill="none" rx="54.874" ry="62.869" stroke-linecap="round" stroke-width="26.457"/><ellipse cx="1134.38" cy="588.213" fill="none" rx="54.118" ry="69.018" stroke-linecap="round" stroke-width="26.514" transform="matrix(.92621312 .37700034 -.37700034 .92621312 0 0)"/></g></g></svg>