<?xml version="1.0" encoding="UTF-8" standalone="no"?>
<svg
   xmlns:dc="http://purl.org/dc/elements/1.1/"
   xmlns:cc="http://creativecommons.org/ns#"
   xmlns:rdf="http://www.w3.org/1999/02/22-rdf-syntax-ns#"
   xmlns:svg="http://www.w3.org/2000/svg"
   xmlns="http://www.w3.org/2000/svg"
   xmlns:xlink="http://www.w3.org/1999/xlink"
   xmlns:sodipodi="http://sodipodi.sourceforge.net/DTD/sodipodi-0.dtd"
   xmlns:inkscape="http://www.inkscape.org/namespaces/inkscape"
   width="800"
   height="450"
   viewBox="0 0 211.66666 119.0625"
   version="1.1"
   id="svg2175"
   sodipodi:docname="background.svg"
   inkscape:version="0.92.2 (5c3e80d, 2017-08-06)">
  <metadata
     id="metadata2179">
    <rdf:RDF>
      <cc:Work
         rdf:about="">
        <dc:format>image/svg+xml</dc:format>
        <dc:type
           rdf:resource="http://purl.org/dc/dcmitype/StillImage" />
      </cc:Work>
    </rdf:RDF>
  </metadata>
  <sodipodi:namedview
     pagecolor="#ffffff"
     bordercolor="#666666"
     borderopacity="1"
     objecttolerance="10"
     gridtolerance="10"
     guidetolerance="10"
     inkscape:pageopacity="0"
     inkscape:pageshadow="2"
     inkscape:window-width="1920"
     inkscape:window-height="1017"
     id="namedview2177"
     showgrid="false"
     inkscape:zoom="1.42"
     inkscape:cx="380.83223"
     inkscape:cy="118.84839"
     inkscape:window-x="-8"
     inkscape:window-y="-8"
     inkscape:window-maximized="1"
     inkscape:current-layer="layer1" />
  <defs
     id="defs2131">
    <linearGradient
       id="a">
      <stop
         offset="0"
         stop-color="#00bfff"
         id="stop2125" />
      <stop
         offset="1"
         stop-color="#afeeee"
         id="stop2127" />
    </linearGradient>
    <linearGradient
       xlink:href="#a"
       id="b"
       x1="72.775"
       y1="102.261"
       x2="168.29"
       y2="16.803"
       gradientUnits="userSpaceOnUse"
       gradientTransform="matrix(.956 0 0 .943 2.892 2.674)" />
  </defs>
  <g
     id="g2137">
    <path
       fill="url(#b)"
       d="M0 0h211.667v119.063h-211.667z"
       id="path2133" />
    <path
       d="M27.451 43.278l14.505 4.205-4.299 10.253-12.568-4.016z"
       fill="#d96060"
       fill-rule="evenodd"
       stroke="#000"
       stroke-width=".265"
       id="path2135" />
  </g>
  <circle
     cx="183.507"
     cy="18.521"
     r="14.174"
     fill="#ffffe0"
     stroke="#ffd700"
     stroke-width="2.117"
     stroke-linecap="round"
     stroke-linejoin="round"
     id="circle2139" />
  <g
     fill="#f1ffff"
     fill-rule="evenodd"
     stroke="#98f2ff"
     stroke-width="1.058"
     stroke-linejoin="round"
     id="g2149">
    <path
       d="M150.151 50.649l39.593.567c-5.506-2.546-10.747-7.053-16.914-4.725.768-1.5.452-3.443-2.834-2.567.288-5.809-4.864-1.993-5.293-2.064-4.57-5.901-5.998-1.116-8.032 1.606-3.585-2.539-4.125-1.104-2.457 3.213-5.315.603-5.57 2.126-4.063 3.969z"
       id="path2141" />
    <path
       d="M5.212 34.338c6.398 2.324 17.267.833 28.264.067-1.812-1.325-1.331-3.615-6.147-3.675 0 0 1.47-3.875-1.27-5.345-2.74-1.47-5.412 1.47-5.412 1.47s-2.873-4.811-7.016-3.809c-4.143 1.002-3.274 4.544-3.274 4.544s-4.209 0-5.078 2.071c-.869 2.071 1.604 2.071 1.604 2.071-.916.901-2.57 1.87-1.67 2.606z"
       id="path2143" />
    <path
       d="M55.101 19.39c4.953.457 22.899 2.079 33.781 0 4.307-4.059-5.53-4.141-8.524-6.147 0 0 3.875-3.074 1.737-4.944-2.138-1.871-6.548 1.737-6.548 1.737s2.539-5.212-.134-5.613c-2.673-.401-8.152 4.544-8.152 4.544s2.275-3.438-.535-3.475c-4.183-.054-14.1 13.561-11.626 13.898z"
       id="path2145" />
    <path
       d="M73.365 69.35c6.783-.189 13.642.695 20.312-1.069-2.016-.664-2.955-1.886-6.281-1.871 0 0 1.871-1.47.401-2.005-1.47-.535-4.944.935-4.944.935s3.341-2.806 1.069-3.207c-2.272-.401-8.018 4.143-8.018 4.143s-3.742-2.005-5.479-.267c-1.737 1.737 3.074 1.336 3.074 1.336s-2.94.401-3.341 1.336c-.401.935 3.207.668 3.207.668z"
       id="path2147" />
  </g>
  <g
     id="g2165">
    <path
       d="M40.759 86.456c1.682-10.291 7.207-20.261 13.096-30.201-5.716-8.452-9.649-17.26-13.631-26.059-10.593 4.062-21.331 7.98-33.676 10.29-.04 12.656-3.099 24.977-6.281 37.284z"
       fill="#d96060"
       fill-rule="evenodd"
       stroke="#730000"
       stroke-width=".794"
       stroke-linejoin="round"
       id="path2151" />
    <path
       d="M4.209 41.287c12.098-1.925 24.095-5.783 36.015-11.092 3.821 9.662 8.274 19.175 15.101 28.13"
       stroke="#5b3337"
       stroke-width="2.117"
       stroke-linejoin="bevel"
       fill="none"
       id="path2153" />
    <path
       d="M11.15 79.092c2.35-6.649 3.69-13.452 4.63-20.316 8.884 1.265 16.197 3.912 23.34 6.709-2.755 6.174-5.604 12.347-6.804 18.521z"
       stroke="#730000"
       stroke-width="1.323"
       stroke-linejoin="round"
       fill="none"
       id="path2155" />
    <path
       d="M32.317 84.005l-16.536-25.23"
       stroke="#ffe9d5"
       stroke-width="1.852"
       stroke-linejoin="round"
       fill="none"
       id="path2157" />
    <path
       d="M11.15 79.092l27.97-13.607"
       stroke="#ffe9d5"
       stroke-width="1.852"
       fill="none"
       id="path2159" />
    <path
       d="M23.921 52.446c3.819 2.231 7.995 3.031 12.161 3.875.935-4.202 3.739-7.394 6.615-10.357-5.079-2.875-11.025-4.786-17.707-5.88-.482 3.244.293 6.661-1.069 12.361z"
       fill="#000001"
       fill-rule="evenodd"
       stroke="#ffe9d5"
       stroke-width="1.323"
       stroke-linejoin="round"
       id="path2161" />
    <path
       d="M25.214 49.059c4.677-2.843 5.928-.507 6.524 2.818 1.582-.974 3.23-1.558 5.279.267l-1.437 3.408c-4.086-.682-7.839-1.731-10.982-3.451z"
       fill="#e8ea00"
       fill-rule="evenodd"
       id="path2163" />
  </g>
  <g
     fill="#3cb371"
     stroke="#2e8b57"
     stroke-width="1.323"
     stroke-linecap="round"
     stroke-linejoin="round"
     id="g2171">
    <path
       d="M142.025 118.063a77.241 39.69 0 0 1 77.241-39.69v39.69z"
       id="path2167" />
    <path
       d="M-69.642 117.307a77.241 39.69 0 0 1 77.241-39.69v39.69z"
       transform="scale(-1 1)"
       id="path2169" />
  </g>
  <path
     d="M221.042-129.831a115.209 41.872 0 0 1-57.604 36.262 115.209 41.872 0 0 1-115.209 0 115.209 41.872 0 0 1-57.604-36.262"
     transform="scale(1 -1)"
     fill="#3cb371"
     stroke="#2e8b57"
     stroke-width="1.323"
     stroke-linecap="round"
     stroke-linejoin="round"
     id="path2173" />
  <g
     transform="matrix(0.02990102,-0.00369955,0.00369955,0.02990102,174.87142,66.816537)"
     id="g2753">
    <path
       style="fill:#f8f3e0;stroke:#000000;stroke-width:8.75399971;stroke-linejoin:round"
       inkscape:connector-curvature="0"
       id="path1159"
       d="m 613.237,518.29 h 51.038 c 4.59,60.041 10.73,118.468 0,177.431 h -51.038 c 7.855,-56.743 6.469,-117.166 0,-177.432 z M 395.475,551.6 h 53.08 c -9.916,41.789 -8.149,84.893 0,128.485 h -53.08 c -7.444,-38.991 -5.262,-80.458 0,-128.485 z" />
    <path
       style="fill:#b14217;fill-rule:evenodd;stroke:#000000;stroke-width:8.75399971;stroke-linejoin:round"
       inkscape:connector-curvature="0"
       id="path1161"
       d="m 396.06,680.085 h 52.494 c 0,0 13.763,38.788 9.48,47.176 -4.283,8.388 -29.029,6.18 -29.029,6.18 l -2.855,-35.759 -0.476,36.642 c 0,0 -26.174,3.532 -33.312,-0.441 -7.138,-3.973 3.698,-53.798 3.698,-53.798 z m 217.177,15.636 h 51.038 c 0,0 -4.083,3.74 -2.722,10.537 1.36,6.798 8.847,38.07 5.104,42.489 -3.743,4.419 -31.644,2.38 -31.644,2.38 l 0.68,-39.09 -3.742,39.429 c 0,0 -26.88,-0.68 -29.942,-6.118 -3.063,-5.439 11.228,-49.627 11.228,-49.627 z" />
    <path
       style="fill:#52504a;fill-rule:evenodd"
       inkscape:connector-curvature="0"
       id="path1163"
       d="m 665.636,607.345 c 0,0 -20.756,-8.498 -26.88,6.798 -6.125,15.296 4.423,14.616 6.124,24.134 1.702,9.517 -14.29,11.217 -8.506,24.473 5.784,13.256 25.86,19.035 25.86,19.035 0,0 5.103,-18.355 4.423,-38.07 -0.68,-19.715 -1.021,-36.37 -1.021,-36.37 z m -268.305,-37.52 c 0,0 12.785,-4.207 11.69,5.272 -1.095,9.479 9.09,2.438 10.994,13.408 1.905,10.97 -7.878,8.843 -7.51,16.004 0.369,7.16 8.29,5.124 6.915,13.23 -1.375,8.106 -7.318,19.415 -17.65,22.026 -10.331,2.613 -8.142,-8.52 -8.142,-8.52 z" />
    <g
       style="fill-rule:evenodd"
       id="g1173">
      <path
         style="fill:#f1c6e3;stroke:#000000;stroke-width:8.75399971;stroke-linejoin:round"
         inkscape:connector-curvature="0"
         id="path1165"
         d="m 564.92,537.664 c 0,0 140.866,58.464 191.904,-31.952 51.038,-90.415 -243.622,-11.556 -191.903,31.952 z" />
      <path
         style="fill:#f1c6e3;stroke:#000000;stroke-width:8.75399971;stroke-linejoin:round"
         inkscape:connector-curvature="0"
         id="path1167"
         d="m 601.294,549.507 33.443,5.288 -17.804,28.121 c 0,0 -6.256,11.537 -19.007,6.97 -10.586,-5.528 -7.459,-15.382 -7.459,-15.382 z" />
      <path
         style="fill:#f1c6e3;stroke:#000000;stroke-width:8.75399971"
         inkscape:connector-curvature="0"
         id="path1169"
         d="m 668.42,555.756 28.872,-4.807 17.563,16.825 c 0,0 7.218,7.45 -3.127,14.661 -10.346,7.211 -20.692,-3.605 -20.692,-3.605 z" />
      <path
         style="fill:#52504a"
         inkscape:connector-curvature="0"
         id="path1171"
         d="m 674.916,526.914 c 0,0 0.963,12.98 15.88,13.7 14.917,0.721 12.51,-8.652 12.51,-8.652 0,0 3.61,2.884 8.422,0.961 4.811,-1.923 9.142,-12.739 9.142,-12.739 z" />
    </g>
    <g
       id="g1183">
      <path
         style="fill:#f8f3e0;stroke:#000000;stroke-width:8.75399971;stroke-linecap:round;stroke-linejoin:round"
         inkscape:connector-curvature="0"
         id="path1175"
         d="m 725.52,478.86 h 57.163 c 7.765,80.61 10.154,166.102 0,226.379 h -57.162 c 12.638,-70.39 7.293,-148.507 0,-226.38 z" />
      <path
         style="fill:#f8f3e0;stroke:#000000;stroke-width:8.75399971;stroke-linejoin:round"
         inkscape:connector-curvature="0"
         id="path1177"
         d="m 288.635,519.649 h 48.996 c -7.922,60.188 -11.923,119.714 0,169.274 h -48.996 c -13.228,-55.178 -3.913,-112.356 0,-169.274 z" />
      <path
         style="fill:#b14217;fill-rule:evenodd;stroke:#000000;stroke-width:8.75399971;stroke-linejoin:round"
         inkscape:connector-curvature="0"
         id="path1179"
         d="m 337.631,688.923 h -48.996 c 0,0 -8.055,29.551 -6.611,43.972 1.443,14.421 29.834,3.365 29.834,3.365 l -1.925,-34.13 7.218,38.456 c 0,0 22.135,-2.403 26.465,-8.171 4.331,-5.769 -5.985,-43.492 -5.985,-43.492 z m 445.052,16.316 c 0,0 5.104,49.626 2.722,55.404 -2.382,5.78 -32.324,1.36 -32.324,1.36 l 2.042,-41.809 -4.083,42.829 c 0,0 -36.748,-1.7 -36.748,-8.158 0,-6.458 11.229,-49.626 11.229,-49.626 z" />
      <path
         style="fill:#52504a;fill-rule:evenodd"
         inkscape:connector-curvature="0"
         id="path1181"
         d="m 785.046,564.177 c 0,0 -17.012,19.374 -15.991,30.591 1.02,11.217 7.825,15.976 6.805,22.434 -1.021,6.459 -7.486,11.897 -7.146,28.893 0.34,16.995 -5.103,23.793 -9.527,26.172 -4.423,2.38 -20.415,0.34 -23.477,8.158 -3.063,7.818 -4.083,20.395 -4.083,20.395 l 48.316,0.34 c 0,0 7.145,-65.263 6.124,-79.539 -1.02,-14.276 -1.02,-57.444 -1.02,-57.444 z" />
    </g>
    <g
       id="g1187">
      <path
         style="fill:#f8f3e0;fill-rule:evenodd;stroke:#000000;stroke-width:8.75399971;stroke-linejoin:round"
         inkscape:connector-curvature="0"
         id="path1185"
         d="m 820.477,216.62 5.293,41.822 c 0,0 9.142,-6.73 23.578,10.095 14.436,16.824 47.638,77.873 53.894,101.908 6.255,24.036 21.653,85.085 19.728,107.678 -1.924,22.593 -9.142,42.783 -3.85,60.568 5.294,17.786 26.466,46.148 26.466,46.148 0,0 -11.548,-36.534 -10.586,-51.435 0.963,-14.902 11.549,45.666 11.549,45.666 0,0 2.406,-28.842 -2.887,-48.07 -5.293,-19.228 7.218,24.997 7.218,24.997 0,0 7.699,-23.074 3.368,-41.34 -4.33,-18.267 -11.067,-30.285 -11.067,-30.285 0,0 -2.888,-43.744 -10.587,-75.47 -7.699,-31.727 -19.729,-75.47 -28.39,-98.064 -8.661,-22.593 -29.353,-68.74 -55.337,-87.007 -25.984,-18.266 -28.39,-7.21 -28.39,-7.21 z" />
    </g>
    <g
       id="g1195">
      <path
         style="fill:#f8f3e0;stroke:#000000;stroke-width:8.75399971"
         inkscape:connector-curvature="0"
         id="path1189"
         d="m 833.04,340.177 c 0,53.188 1.904,78.365 -57.397,147.246 -47.31,54.953 -177.761,40.344 -263.802,57.379 -94.526,18.715 -199.945,17.684 -254.274,-41.063 -49.235,-53.24 -60.315,-86.464 -69.647,-154.044 -4.797,-34.74 87.502,-204.947 223.442,-198.912 58.537,2.599 72.382,-31.545 150.837,-27.467 98.146,5.102 119.977,36.9 198.472,24.748 71.7,-11.101 72.37,138.925 72.37,192.113 z" />
      <path
         style="fill:#52504a;fill-rule:evenodd"
         inkscape:connector-curvature="0"
         id="path1191"
         d="m 355.165,268.537 c 0,0 23.097,0.96 32.72,11.536 9.625,10.576 7.7,20.19 16.361,22.113 8.662,1.922 5.293,-7.692 5.293,-7.692 0,0 -1.924,-16.343 14.917,-14.901 16.842,1.442 26.466,7.691 31.759,16.343 5.293,8.653 5.774,28.843 15.398,33.17 9.624,4.325 19.729,11.055 27.91,20.189 8.18,9.133 3.849,27.4 16.36,33.168 12.51,5.769 22.135,19.228 20.21,33.168 -1.925,13.94 -8.662,20.67 -17.323,25.478 -8.662,4.807 -22.135,0 -25.984,11.537 -3.85,11.537 3.368,13.46 9.142,23.554 5.774,10.095 3.369,15.863 -0.962,18.748 -4.33,2.884 -10.105,5.287 -16.36,0.48 -6.256,-4.807 -23.58,-12.498 -31.76,-13.94 -8.18,-1.442 -30.796,-7.21 -36.57,-12.018 -5.774,-4.807 -17.323,-31.245 -25.503,-37.975 -8.18,-6.73 -22.616,-12.498 -38.495,-9.614 -15.88,2.884 -46.676,7.21 -56.78,-8.653 -10.106,-15.863 -27.91,-94.698 5.292,-124.502 33.202,-29.803 54.375,-20.19 54.375,-20.19 z" />
      <path
         style="fill:#52504a;fill-rule:evenodd"
         inkscape:connector-curvature="0"
         id="path1193"
         d="m 400.919,551.09 c 0,0 -40.15,-1.19 -69.412,-9.687 -29.262,-8.498 3.232,-14.786 3.232,-14.786 0,0 22.627,-5.609 -6.464,-7.988 -29.092,-2.38 -17.353,-18.865 -17.353,-18.865 0,0 10.888,-16.485 8.506,-32.461 -2.382,-15.976 -9.527,-24.304 3.573,-34.5 13.1,-10.198 36.407,-6.799 37.768,1.019 1.36,7.818 -3.233,27.533 7.145,32.291 10.378,4.759 29.942,1.19 30.793,16.486 0.85,15.296 -15.652,23.623 -11.569,37.56 4.083,13.936 10.889,11.896 12.76,19.204 1.871,7.308 1.02,11.727 1.02,11.727 z M 597.204,125.887 c 0,0 -12.511,12.018 -10.586,29.323 1.925,17.305 14.917,24.516 13.954,36.053 -0.962,11.537 -27.428,28.842 -31.277,41.34 -3.85,12.498 -17.323,35.091 15.398,43.744 32.721,8.653 29.834,7.21 32.721,20.67 2.887,13.46 25.984,35.092 25.984,49.993 0,14.902 -5.293,54.8 37.533,63.934 42.826,9.133 38.977,-35.572 46.676,-52.397 7.699,-16.824 29.353,-25.477 35.608,-39.898 6.255,-14.421 15.88,-33.169 -5.774,-49.993 -21.654,-16.825 -23.579,-10.095 -21.654,-22.112 1.925,-12.018 16.36,-12.98 24.06,-21.151 7.699,-8.172 24.06,-19.71 39.457,-19.229 15.398,0.481 18.286,3.846 18.286,3.846 0,0 -8.662,-27.4 -12.511,-33.649 -3.85,-6.25 -1.444,-3.365 -13.955,-18.267 -12.51,-14.901 -36.57,-5.768 -49.081,-4.326 -12.511,1.442 -39.458,0 -50.044,-3.365 -10.587,-3.365 -35.127,-10.575 -53.413,-12.979 -18.285,-2.403 -41.382,-11.537 -41.382,-11.537 z" />
    </g>
    <g
       id="g1215"
       transform="translate(-45.792,-2161.371)">
      <path
         style="fill:#f8f3e0;fill-rule:evenodd;stroke:#000000;stroke-width:8.75399971;stroke-linejoin:round"
         inkscape:connector-curvature="0"
         id="path1197"
         d="m 50.168,2373.666 c 0,0 46.676,-12.018 61.112,-32.207 14.435,-20.19 15.398,-27.4 16.841,-37.976 1.444,-10.575 31.416,-31.372 31.416,-31.372 l -10.243,84.25 c 0,0 -4.33,27.88 -27.91,40.859 -23.578,12.979 -40.9,3.365 -51.487,-2.884 -10.586,-6.25 -19.729,-20.67 -19.729,-20.67 z m 428.742,-36.053 c 0,0 -68.81,-21.151 -75.547,-53.839 -6.737,-32.688 -32.529,-20.841 -32.529,-20.841 l 24.349,72.757 c 0,0 10.105,30.284 42.344,30.284 32.24,0 41.383,-28.361 41.383,-28.361 z" />
      <path
         style="fill:#f6cf85;fill-rule:evenodd;stroke:#000000;stroke-width:8.75399971;stroke-linejoin:round"
         inkscape:connector-curvature="0"
         id="path1199"
         d="m 370.834,2262.933 c 0,0 21.943,-17.615 23.867,-38.285 1.925,-20.67 -7.699,-58.165 -7.699,-58.165 0,0 46.195,32.207 39.94,74.509 -6.256,42.301 -39.94,73.547 -39.94,73.547 z m -213.36,13.631 c 0,0 -25.984,-20.19 -28.871,-53.84 -2.888,-33.648 10.586,-51.434 10.586,-51.434 0,0 -42.345,41.34 -35.608,87.488 6.736,46.147 48.119,71.144 48.119,71.144 z" />
      <path
         style="fill:#f8f3e0;fill-rule:evenodd;stroke:#000000;stroke-width:8.75399971;stroke-linejoin:round"
         inkscape:connector-curvature="0"
         id="path1201"
         d="m 159.537,2272.11 c 0,0 36.747,-27.532 108.54,-26.173 71.794,1.36 102.757,16.996 102.757,16.996 0,0 33.685,73.76 30.963,141.402 -2.722,67.641 -18.374,95.854 -35.046,120.667 -16.672,24.813 -45.594,40.45 -79.96,48.267 -34.365,7.818 -67.37,-6.118 -86.764,-22.434 -19.395,-16.315 -53.08,-36.03 -55.462,-116.928 -2.381,-80.898 14.972,-161.796 14.972,-161.796 z" />
      <path
         style="fill:#52504a;fill-rule:evenodd"
         inkscape:connector-curvature="0"
         id="path1203"
         d="m 306.403,2251.867 c 0,0 0.24,12.498 -16.12,27.16 -16.36,14.661 -30.796,12.979 -19.007,33.409 11.789,20.43 7.458,21.872 5.774,23.794 -1.684,1.923 -9.383,11.297 -38.255,-14.18 -28.871,-25.478 -26.465,15.142 -27.668,21.631 -1.203,6.49 0.481,18.267 -21.894,22.834 -22.376,4.566 -37.052,-15.623 -37.052,-15.623 1.862,-25.746 5.763,-51.085 10.827,-76.191 -0.304,-0.608 50.129,-35.402 143.395,-22.834 z" />
      <ellipse
         style="fill:#f8ffff;stroke:#000000;stroke-width:10.15600014;stroke-linecap:round;stroke-linejoin:round"
         id="ellipse1205"
         ry="26.108999"
         rx="16.256001"
         cy="2340.5979"
         cx="222.32201" />
      <ellipse
         style="fill:#f8ffff;stroke:#000000;stroke-width:10.07600021;stroke-linecap:round;stroke-linejoin:round"
         id="ellipse1207"
         transform="matrix(0.98743864,0.15800296,-0.15831318,0.987389,0,0)"
         ry="26.139"
         rx="16.541"
         cy="2259.9529"
         cx="700.04199" />
      <path
         style="fill:#f1c6e3;fill-rule:evenodd;stroke:#000000;stroke-width:8.75399971;stroke-linejoin:round"
         inkscape:connector-curvature="0"
         id="path1209"
         d="m 149.329,2472.996 c 0,0 31.644,-52.686 116.707,-62.203 85.063,-9.518 132.359,25.493 132.359,25.493 0,0 -3.743,105.711 -101.056,135.283 -97.312,29.572 -142.226,-76.479 -142.226,-76.479 z" />
      <ellipse
         style="fill:none;stroke:#000000;stroke-width:8.75399971;stroke-linecap:round;stroke-linejoin:round"
         id="ellipse1211"
         cx="237.472"
         cy="2465.8401"
         rx="18.165001"
         ry="20.790001" />
      <ellipse
         style="fill:none;stroke:#000000;stroke-width:8.77299976;stroke-linecap:round;stroke-linejoin:round"
         id="ellipse1213"
         transform="matrix(0.92635124,0.37666084,-0.37732372,0.9260817,0,0)"
         ry="22.827"
         rx="17.912001"
         cy="2159.9829"
         cx="1209.411" />
    </g>
  </g>
  <g
     inkscape:groupmode="layer"
     id="layer1"
     inkscape:label="grass" />
</svg>
