<?xml version="1.0" encoding="UTF-8" standalone="no"?>
<svg
   xmlns:dc="http://purl.org/dc/elements/1.1/"
   xmlns:cc="http://creativecommons.org/ns#"
   xmlns:rdf="http://www.w3.org/1999/02/22-rdf-syntax-ns#"
   xmlns:svg="http://www.w3.org/2000/svg"
   xmlns="http://www.w3.org/2000/svg"
   xmlns:sodipodi="http://sodipodi.sourceforge.net/DTD/sodipodi-0.dtd"
   xmlns:inkscape="http://www.inkscape.org/namespaces/inkscape"
   width="100"
   height="100"
   viewBox="0 0 26.458 26.458"
   version="1.1"
   id="svg1441"
   sodipodi:docname="bottle.svg"
   inkscape:version="0.92.2 (5c3e80d, 2017-08-06)">
  <metadata
     id="metadata1447">
    <rdf:RDF>
      <cc:Work
         rdf:about="">
        <dc:format>image/svg+xml</dc:format>
        <dc:type
           rdf:resource="http://purl.org/dc/dcmitype/StillImage" />
      </cc:Work>
    </rdf:RDF>
  </metadata>
  <defs
     id="defs1445" />
  <sodipodi:namedview
     pagecolor="#ffffff"
     bordercolor="#666666"
     borderopacity="1"
     objecttolerance="10"
     gridtolerance="10"
     guidetolerance="10"
     inkscape:pageopacity="0"
     inkscape:pageshadow="2"
     inkscape:window-width="1920"
     inkscape:window-height="1017"
     id="namedview1443"
     showgrid="false"
     inkscape:zoom="2.36"
     inkscape:cx="-2.7542373"
     inkscape:cy="50"
     inkscape:window-x="-8"
     inkscape:window-y="-8"
     inkscape:window-maximized="1"
     inkscape:current-layer="svg1441" />
  <path
     d="M2.646 2.646h21.167v21.167H2.646z"
     id="path1429"
     fill="#ebbe80" />
  <path
     fill="#bc8942"
     d="M1.27 1.323h2.706v23.789H1.27zM22.501 1.323h2.635v23.789h-2.635z"
     id="path1431" />
  <path
     d="M1.27 1.323h23.866v2.646H1.27zM1.27 22.49h23.866v2.622H1.27z"
     id="path1433"
     fill="#bc8942" />
  <path
     d="M14.55 10.656h11.258l-.033 15.134H14.549z"
     fill="#fffef6"
     id="path1435" />
  <g
     aria-label="MILK"
     transform="matrix(0.52929062,0,0,0.52929062,-13.552554,-5.4114923)"
     style="font-style:normal;font-weight:normal;font-size:13.33333302px;line-height:125%;font-family:sans-serif;text-align:center;letter-spacing:0px;word-spacing:0px;text-anchor:middle;fill:#bc8942;fill-opacity:1;stroke:none;stroke-width:1px;stroke-linecap:butt;stroke-linejoin:miter;stroke-opacity:1"
     id="flowRoot1992">
    <path
       sodipodi:type="inkscape:offset"
       inkscape:radius="0"
       inkscape:original="M 34.505859 20.443359 L 34.505859 29.960938 L 36.308594 29.960938 L 36.308594 25.535156 C 36.308594 25.027344 36.268012 24.013238 36.185547 22.494141 L 36.244141 22.494141 L 38.535156 29.960938 L 40.384766 29.960938 L 42.837891 22.507812 L 42.896484 22.507812 C 42.844398 23.705729 42.815321 24.442925 42.806641 24.720703 C 42.802307 24.99848 42.798828 25.244357 42.798828 25.457031 L 42.798828 29.960938 L 44.681641 29.960938 L 44.681641 20.443359 L 41.933594 20.443359 L 39.544922 27.722656 L 39.505859 27.722656 L 37.251953 20.443359 L 34.505859 20.443359 z M 47.083984 20.443359 L 47.083984 29.960938 L 49.101562 29.960938 L 49.101562 20.443359 L 47.083984 20.443359 z M 51.509766 20.443359 L 51.509766 29.960938 L 57.388672 29.960938 L 57.388672 28.294922 L 53.529297 28.294922 L 53.529297 20.443359 L 51.509766 20.443359 z M 59.037109 20.443359 L 59.037109 29.960938 L 61.054688 29.960938 L 61.054688 26.5625 L 61.908203 25.951172 L 64.400391 29.960938 L 66.693359 29.960938 L 63.345703 24.65625 L 66.666016 20.443359 L 64.427734 20.443359 L 61.849609 23.679688 L 61.054688 24.798828 L 61.054688 20.443359 L 59.037109 20.443359 z "
       style="font-style:normal;font-variant:normal;font-weight:bold;font-stretch:normal;font-family:'open sans';-inkscape-font-specification:'open sans Bold';fill:#bc8942;fill-opacity:1"
       id="path2006"
       d="m 34.505859,20.443359 v 9.517579 h 1.802735 v -4.425782 c 0,-0.507812 -0.04058,-1.521918 -0.123047,-3.041015 h 0.05859 l 2.291015,7.466797 h 1.84961 l 2.453125,-7.453126 h 0.05859 c -0.05209,1.197917 -0.08116,1.935113 -0.08984,2.212891 -0.0043,0.277777 -0.0078,0.523654 -0.0078,0.736328 v 4.503907 h 1.882813 v -9.517579 h -2.748047 l -2.388672,7.279297 h -0.03906 l -2.253906,-7.279297 z m 12.578125,0 v 9.517579 h 2.017578 v -9.517579 z m 4.425782,0 v 9.517579 h 5.878906 v -1.666016 h -3.859375 v -7.851563 z m 7.527343,0 v 9.517579 h 2.017579 V 26.5625 l 0.853515,-0.611328 2.492188,4.009766 h 2.292968 l -3.347656,-5.304688 3.320313,-4.212891 h -2.238282 l -2.578125,3.236329 -0.794921,1.11914 v -4.355469 z" />
  </g>
  <g
     id="g1439">
    <path
       d="M25.825 25.79l-.017-15.134-3.307-6.698v-1.32l.668-.652V.65h-5.964v1.336l.635.652v1.32l-3.322 6.698.05 15.134z"
       fill="none"
       stroke="#000"
       stroke-width="1.058"
       stroke-linejoin="round"
       id="path1437" />
  </g>
</svg>
