<svg xmlns="http://www.w3.org/2000/svg" width="100" height="100" viewBox="0 0 26.458 26.458"><g transform="translate(0 -270.542)"><path d="M12.829 295.53c-4.507-4.823-8.543-7.358-11.526-13.464-1.63-4.45 1.616-9.98 4.874-10.04 3.626-.064 7.462 1.006 7.053 6.833-.03-5.377 4.37-8.616 9.531-6.818 2.626.915 5.094 4.938 1.16 11.863-3.903 6.315-6.577 7.672-11.092 11.626z" fill="#d40000" stroke="#000" stroke-width="1.058" stroke-linejoin="round"/><path d="M19.043 273.28c3.414-.147 5.09 1.555 5.746 4.343.514 2.927-3.133 2.487-2.606 1.303 1.177-3.118-1.52-3.957-4.744-4.61-1.35-.233-.491-.821 1.604-1.036z" fill="#fff"/><ellipse cx="194.094" cy="205.348" rx="1.119" ry="1.303" transform="rotate(38.826)" fill="#fff"/></g></svg>